<?xml version="1.0"?>
<svg width="1024" height="1024" xmlns="http://www.w3.org/2000/svg" xmlns:svg="http://www.w3.org/2000/svg" class="icon" version="1.1">
 <g class="layer">
  <title>Layer 1</title>
  <path d="m704.81,372.84l104.73,0c90.02,0 162.97,72.98 162.97,163.01c0,44.98 -18.25,85.71 -47.73,115.22c-29.47,29.47 -70.23,47.73 -115.24,47.73l-594.76,0c-89.99,0 -162.94,-72.99 -162.94,-162.95c0,-45.01 18.22,-85.77 47.73,-115.28c29.47,-29.48 70.23,-47.73 115.21,-47.73l4.93,0c0,-133.92 108.63,-242.55 242.55,-242.55c133.95,0 242.55,108.63 242.55,242.55z" fill="#8B87C1" id="svg_1"/>
  <path d="m704.81,395.22a22.38,22.38 0 0 1 -22.38,-22.38c0,-121.4 -98.77,-220.17 -220.17,-220.17s-220.17,98.77 -220.17,220.17a22.38,22.38 0 1 1 -44.76,0c0,-146.08 118.84,-264.93 264.93,-264.93s264.92,118.85 264.92,264.93a22.38,22.38 0 0 1 -22.37,22.38z" fill="#4F46A3" id="svg_2"/>
  <path d="m809.54,721.17l-594.76,0c-102.18,0 -185.32,-83.13 -185.32,-185.32c0,-49.54 19.28,-96.1 54.28,-131.11c35.01,-35 81.54,-54.28 131.04,-54.28a22.38,22.38 0 1 1 0,44.76c-37.54,0 -72.84,14.62 -99.39,41.17s-41.18,61.87 -41.18,99.46c0,77.5 63.06,140.56 140.57,140.56l594.76,0c37.56,0 72.87,-14.62 99.42,-41.17c26.55,-26.58 41.18,-61.88 41.18,-99.39c0,-77.55 -63.08,-140.64 -140.6,-140.64a22.38,22.38 0 1 1 0,-44.75c102.2,0 185.35,83.16 185.35,185.39c0,49.45 -19.27,95.99 -54.27,131.03c-35.02,35.01 -81.56,54.29 -131.08,54.29z" fill="#4F46A3" id="svg_3"/>
  <path d="m809.54,395.22l-179.16,0a22.38,22.38 0 1 1 0,-44.76l179.16,0a22.38,22.38 0 1 1 0,44.76zm-622.62,520.55a22.38,22.38 0 0 1 -13.73,-40.06l142.33,-110.42a22.38,22.38 0 1 1 27.43,35.36l-142.33,110.42a22.28,22.28 0 0 1 -13.7,4.7zm207.8,0a22.38,22.38 0 0 1 -13.73,-40.06l142.32,-110.42a22.38,22.38 0 0 1 27.44,35.36l-142.33,110.42a22.28,22.28 0 0 1 -13.7,4.7zm207.8,0a22.38,22.38 0 0 1 -13.74,-40.06l142.33,-110.42a22.38,22.38 0 0 1 27.44,35.36l-142.33,110.42a22.28,22.28 0 0 1 -13.7,4.7z" fill="#4F46A3" id="svg_4"/>
  <text fill="#ffffff" font-family="Courier" font-size="24" font-weight="bold" id="svg_5" stroke="#000000" stroke-width="0" text-anchor="middle" transform="rotate(-35 703.886 505.229) matrix(27.9897 0 0 27.9897 -13942.4 -12747.2)" x="523.27" xml:space="preserve" y="481.37">%</text>
 </g>
</svg>